HIERARCHY
ROOT Hips
{
  OFFSET 44.8108 95.3625 -9.71543
  CHANNELS 6 Xposition Yposition Zposition Zrotation Xrotation Yrotation
  JOINT spine
  {
    OFFSET 0 8.13249 0.467659
    CHANNELS 3 Zrotation Xrotation Yrotation
    JOINT spine1
    {
      OFFSET 0 10.3498 0
      CHANNELS 3 Zrotation Xrotation Yrotation
      JOINT spine2
      {
        OFFSET 0 9.91699 0
        CHANNELS 3 Zrotation Xrotation Yrotation
        JOINT Neck
        {
          OFFSET 0 25.461 1.2139
          CHANNELS 3 Zrotation Xrotation Yrotation
          JOINT Head
          {
            OFFSET 0 7.69245 0
            CHANNELS 3 Zrotation Xrotation Yrotation
            End Site
            {
              OFFSET 0 18.62 -6.14063
            }
          }
        }
        JOINT RightShoulder
        {
          OFFSET -4.17575 10.7096 -0.581445
          CHANNELS 3 Zrotation Xrotation Yrotation
          JOINT RightArm
          {
            OFFSET 0 14.0466 0
            CHANNELS 3 Zrotation Xrotation Yrotation
            JOINT RightArmRoll
            {
              OFFSET 0 7.09098 0
              CHANNELS 3 Zrotation Xrotation Yrotation
              JOINT RightForeArm
              {
                OFFSET 0 20.6535 0
                CHANNELS 3 Zrotation Xrotation Yrotation
                JOINT RightForeArmRoll
                {
                  OFFSET 0 7.95718 0
                  CHANNELS 3 Zrotation Xrotation Yrotation
                  JOINT RightHand
                  {
                    OFFSET 0 15.9683 0
                    CHANNELS 3 Zrotation Xrotation Yrotation
                    End Site
                    {
                      OFFSET 0 0 0
                    }
                  }
                }
              }
            }
          }
        }
        JOINT LeftShoulder
        {
          OFFSET 4.17575 10.7096 -0.581445
          CHANNELS 3 Zrotation Xrotation Yrotation
          JOINT LeftArm
          {
            OFFSET 0 14.0466 0
            CHANNELS 3 Zrotation Xrotation Yrotation
            JOINT LeftArmRoll
            {
              OFFSET 0 7.09099 0
              CHANNELS 3 Zrotation Xrotation Yrotation
              JOINT LeftForeArm
              {
                OFFSET 0 20.6535 0
                CHANNELS 3 Zrotation Xrotation Yrotation
                JOINT LeftForeArmRoll
                {
                  OFFSET 0 7.95718 0
                  CHANNELS 3 Zrotation Xrotation Yrotation
                  JOINT LeftHand
                  {
                    OFFSET 0 15.9683 0
                    CHANNELS 3 Zrotation Xrotation Yrotation
                    End Site
                    {
                      OFFSET 0 0 0
                    }
                  }
                }
              }
            }
          }
        }
      }
    }
  }
  JOINT RightUpLeg
  {
    OFFSET -7.20834 -1.32182 -1.10884
    CHANNELS 3 Zrotation Xrotation Yrotation
    JOINT RightUpLegRoll
    {
      OFFSET 0 18.7238 0
      CHANNELS 3 Zrotation Xrotation Yrotation
      JOINT RightLeg
      {
        OFFSET 0 -23.1866 0
        CHANNELS 3 Zrotation Xrotation Yrotation
        JOINT RightLegRoll
        {
          OFFSET 0 23.2624 0
          CHANNELS 3 Zrotation Xrotation Yrotation
          JOINT RightFoot
          {
            OFFSET 0 19.3621 0
            CHANNELS 3 Zrotation Xrotation Yrotation
            JOINT RightToeBase
            {
              OFFSET 0 16.1857 0
              CHANNELS 3 Zrotation Xrotation Yrotation
              End Site
              {
                OFFSET 0.00686052 7.83863 -0.903522
              }
            }
          }
        }
      }
    }
  }
  JOINT LeftUpLeg
  {
    OFFSET 7.20834 -1.32182 -1.10884
    CHANNELS 3 Zrotation Xrotation Yrotation
    JOINT LeftUpLegRoll
    {
      OFFSET 0 18.7239 0
      CHANNELS 3 Zrotation Xrotation Yrotation
      JOINT LeftLeg
      {
        OFFSET 0 23.1865 0
        CHANNELS 3 Zrotation Xrotation Yrotation
        JOINT LeftLegRoll
        {
          OFFSET 0 23.4775 0
          CHANNELS 3 Zrotation Xrotation Yrotation
          JOINT LeftFoot
          {
            OFFSET 0 19.147 0
            CHANNELS 3 Zrotation Xrotation Yrotation
            JOINT LeftToeBase
            {
              OFFSET 0 16.1857 0
              CHANNELS 3 Zrotation Xrotation Yrotation
              End Site
              {
                OFFSET -0.0307459 7.83863 -0.903522
              }
            }
          }
        }
      }
    }
  }
}
MOTION
Frames: 6
Frame Time: 0.00208333
50.213 96.084 6.99999 -0.659984 -3.25319 0.200281 0.456239 -0.403025 -0.00193016 0.905177 3.19595 -0.0530814 0.906897 4.84091 -0.0685402 -2.25341 14.547 -3.13706 2.0131 -8.04249 -3.41731 58.6738 -8.64778 -5.36868 115.859 19.3159 18.7022 1.97519e-005 -5.11672e-007 -7.71514e-006 6.05274 0.0405501 -0.658336 -1.25616e-006 2.19301e-007 -3.02019 8.02939 -4.95143 0.697656 -58.1101 -7.62905 4.71079 -114.614 16.0277 -8.24837 -1.29009e-006 -3.79506e-007 4.203e-006 -8.47271 0.0628395 1.17725 1.67278e-005 6.2076e-006 3.04795 -8.0291 -4.95148 -0.69768 175.938 1.2187 3.08608 180 7.01558e-015 178.971 177.014 10.3497 179.903 -3.16558e-006 -1.15317e-006 0.0892618 -18.0712 68.941 20.2976 8.13546 25.2327 -3.4873 -175.577 0.72225 0.105001 4.5067e-006 -1.99009e-005 -0.999243 -0.569192 -13.2297 0.532873 1.494e-006 -2.10155e-006 -0.26754 20.9206 72.4058 -23.8211 -8.12618 25.2332 3.48334 
50.2133 96.0829 7.00414 -0.659253 -3.244 0.202308 0.45612 -0.400958 -0.00203389 0.905561 3.19954 -0.0542734 0.907303 4.84449 -0.0697251 -2.24687 14.5405 -3.14143 2.00831 -8.0327 -3.42079 58.6675 -8.64852 -5.36904 115.867 19.3124 18.6987 1.97519e-005 -5.11672e-007 -7.71514e-006 6.05414 0.04055 -0.658327 -1.25616e-006 2.19301e-007 -3.02019 8.02939 -4.95143 0.697656 -58.1124 -7.62683 4.70949 -114.621 16.0235 -8.26848 -1.29009e-006 -3.79506e-007 4.203e-006 -8.46179 0.0628412 1.17871 1.67278e-005 6.2076e-006 3.04794 -8.0291 -4.95148 -0.69768 175.941 1.23125 3.08209 180 7.01558e-015 178.971 177.017 10.3597 179.903 -3.16558e-006 -1.15317e-006 0.0894251 -18.0777 68.9478 20.3043 8.13546 25.2327 -3.4873 -175.575 0.728095 0.103758 4.5067e-006 -1.99009e-005 -0.99913 -0.570665 -13.2279 0.532662 1.494e-006 -2.10155e-006 -0.267635 20.9207 72.4069 -23.8239 -8.12618 25.2332 3.48334 
50.2099 96.0828 7.00944 -0.658374 -3.23541 0.20439 0.455964 -0.398803 -0.00212683 0.905892 3.20324 -0.0554737 0.907654 4.84819 -0.0709172 -2.24037 14.5341 -3.14587 2.0036 -8.02318 -3.42436 58.6615 -8.6491 -5.36931 115.875 19.3087 18.6947 1.97519e-005 -5.11672e-007 -7.71514e-006 6.05602 0.0405499 -0.658315 -1.25616e-006 2.19301e-007 -3.02019 8.02939 -4.95143 0.697656 -58.1148 -7.62443 4.70807 -114.628 16.019 -8.28939 -1.29009e-006 -3.79506e-007 4.203e-006 -8.4505 0.0628431 1.18021 1.67278e-005 6.2076e-006 3.04793 -8.0291 -4.95148 -0.69768 175.944 1.24309 3.07846 180 7.01558e-015 178.971 177.02 10.3695 179.902 -3.16558e-006 -1.15317e-006 0.0895749 -18.084 68.9546 20.311 8.13546 25.2327 -3.4873 -175.573 0.733079 0.102458 4.5067e-006 -1.99009e-005 -0.999041 -0.572262 -13.2257 0.532417 1.494e-006 -2.10155e-006 -0.267719 20.9209 72.408 -23.8267 -8.12618 25.2332 3.48334 
50.2069 96.0818 7.01159 -0.657391 -3.22723 0.20651 0.455781 -0.396587 -0.00221222 0.906185 3.20703 -0.05668 0.907969 4.85198 -0.0721143 -2.23391 14.5279 -3.15035 1.99895 -8.01385 -3.42798 58.6555 -8.64958 -5.36952 115.883 19.305 18.6904 1.97519e-005 -5.11672e-007 -7.71514e-006 6.05825 0.0405497 -0.6583 -1.25616e-006 2.19301e-007 -3.02019 8.02939 -4.95143 0.697656 -58.1173 -7.6219 4.70659 -114.634 16.0144 -8.31086 -1.29009e-006 -3.79506e-007 4.203e-006 -8.43894 0.0628449 1.18172 1.67278e-005 6.2076e-006 3.04792 -8.0291 -4.95148 -0.69768 175.947 1.25442 3.07507 180 7.01558e-015 178.971 177.023 10.3792 179.902 -3.16558e-006 -1.15317e-006 0.0897153 -18.09 68.9614 20.3177 8.13546 25.2327 -3.4873 -175.572 0.737462 0.101119 4.5067e-006 -1.99009e-005 -0.998967 -0.573947 -13.2233 0.532146 1.494e-006 -2.10155e-006 -0.267795 20.9212 72.4091 -23.8296 -8.12618 25.2332 3.48334 
50.1948 96.0854 7.01589 -0.65635 -3.2193 0.208651 0.455583 -0.394336 -0.0022933 0.906457 3.21086 -0.0578897 0.908262 4.85581 -0.0733143 -2.22747 14.5218 -3.15486 1.99433 -8.00463 -3.43163 58.6496 -8.65 -5.36969 115.89 19.3012 18.6859 1.97519e-005 -5.11672e-007 -7.71514e-006 6.06067 0.0405495 -0.658283 -1.25616e-006 2.19301e-007 -3.02019 8.02939 -4.95143 0.697656 -58.1199 -7.61931 4.70506 -114.641 16.0098 -8.33265 -1.29009e-006 -3.79506e-007 4.203e-006 -8.42724 0.0628468 1.18325 1.67278e-005 6.2076e-006 3.0479 -8.0291 -4.95148 -0.69768 175.949 1.26547 3.07183 180 7.01558e-015 178.971 177.025 10.3889 179.902 -3.16558e-006 -1.15317e-006 0.0898503 -18.096 68.9681 20.3243 8.13546 25.2327 -3.4873 -175.57 0.7415 0.0997567 4.5067e-006 -1.99009e-005 -0.998903 -0.575681 -13.2209 0.531862 1.494e-006 -2.10155e-006 -0.267866 20.9215 72.4102 -23.8324 -8.12618 25.2332 3.48334 
50.1938 96.0842 7.01877 -0.655294 -3.21143 0.210799 0.455381 -0.392076 -0.0023733 0.906723 3.2147 -0.0591002 0.90855 4.85965 -0.074515 -2.22104 14.5157 -3.15937 1.98971 -7.99543 -3.43528 58.6437 -8.6504 -5.36984 115.898 19.2974 18.6814 1.97519e-005 -5.11672e-007 -7.71514e-006 6.06315 0.0405494 -0.658266 -1.25616e-006 2.19301e-007 -3.02019 8.02939 -4.95143 0.697656 -58.1226 -7.6167 4.70352 -114.648 16.0051 -8.35451 -1.29009e-006 -3.79506e-007 4.203e-006 -8.41549 0.0628487 1.18478 1.67278e-005 6.2076e-006 3.04789 -8.0291 -4.95148 -0.69768 175.952 1.27645 3.06862 180 7.01558e-015 178.971 177.028 10.3985 179.902 -3.16558e-006 -1.15317e-006 0.0899839 -18.102 68.9749 20.331 8.13546 25.2327 -3.4873 -175.569 0.745453 0.0983888 4.5067e-006 -1.99009e-005 -0.998841 -0.577428 -13.2183 0.531574 1.494e-006 -2.10155e-006 -0.267936 20.9219 72.4112 -23.8353 -8.12618 25.2332 3.48334 
